<svg width="36" height="36" viewBox="0 0 36 36" fill="none" xmlns="http://www.w3.org/2000/svg">
<path d="M21.7864 7.37953C20.603 6.95718 19.3285 6.72759 17.9999 6.72759C11.7743 6.72759 6.72814 11.7744 6.72814 18C6.72814 19.3287 6.95773 20.6038 7.38008 21.7872C5.94166 21.2437 4.59293 20.3929 3.43497 19.235C1.91556 17.7155 0.925597 15.8675 0.465088 13.919C2.00926 7.25504 7.25491 2.00939 13.9196 0.46521C15.8674 0.925719 17.7154 1.91568 19.2348 3.43509C20.3921 4.59239 21.2429 5.94111 21.7864 7.37953Z" fill="url(#paint0_linear_2001_2130)"/>
<path d="M35.5353 22.0823C33.9905 28.7457 28.7448 33.9906 22.0808 35.5348C20.1331 35.0743 18.285 34.0843 16.7656 32.5649C15.6076 31.407 14.7569 30.0582 14.2134 28.6205C15.3968 29.0428 16.6712 29.2724 17.9999 29.2724C24.2254 29.2724 29.2723 24.2256 29.2723 18C29.2723 16.6714 29.0427 15.3963 28.6203 14.2129C30.0581 14.7564 31.4068 15.6071 32.5648 16.7651C34.0842 18.2845 35.0748 20.1339 35.5353 22.0823Z" fill="url(#paint1_linear_2001_2130)"/>
<defs>
<linearGradient id="paint0_linear_2001_2130" x1="16.8607" y1="3.05156" x2="2.79976" y2="17.0368" gradientUnits="userSpaceOnUse">
<stop stop-color="#F67986"/>
<stop offset="1" stop-color="#8951BA"/>
</linearGradient>
<linearGradient id="paint1_linear_2001_2130" x1="32.9423" y1="19.2196" x2="18.8814" y2="33.2055" gradientUnits="userSpaceOnUse">
<stop stop-color="#F67986"/>
<stop offset="1" stop-color="#8951BA"/>
</linearGradient>
</defs>
</svg>
